# xmcd CD database file generated by Grip 3.3.1
# 
# Track frame offsets:
#       150
#       4045
#       25837
#       30553
#       45646
#       72513
#       88779
# 
# Disc length: 1455 seconds
# 
# Revision: 1
# Processed by: cddbd v1.5.2PL0 Copyright (c) Steve Scherf et al.
# Submitted via: Grip 3.3.1
# 
DISCID=5005ad07
DTITLE=Ibrahim Maalouf - DIACHRONISM Paradoxidental
DYEAR=2009
DGENRE=Jazz
TTITLE0=Intro (old radio of a Lebanese mountain)
TTITLE1=ESSE EMME
TTITLE2=Intro (winners of 2007-2009 tour)
TTITLE3=BIZARRE (Feat. Matthieu Chedid)
TTITLE4=MAKE CE (Feat. Lollibob)
TTITLE5=Trumpet - Piano Improvisation (Feat. Jacky Terrasson)
TTITLE6=SOUMA HIA (Feat. Jacky Terrasson)
EXTD=YEAR: 2009
EXTT0=
EXTT1=
EXTT2=
EXTT3=
EXTT4=
EXTT5=
EXTT6=
PLAYORDER=
